{"accessors":[{"bufferView":2,"componentType":5126,"count":5825,"max":[9.203567504882812,1.7953895330429077,15.445897102355957],"min":[-6.208061695098877,-3.925957679748535,-0.0022859573364257812],"type":"VEC3"},{"bufferView":2,"byteOffset":69900,"componentType":5126,"count":5825,"max":[0.999589741230011,0.9998518228530884,0.9995918273925781],"min":[-0.9996933937072754,-0.9998443126678467,-0.9998127222061157],"type":"VEC3"},{"bufferView":1,"componentType":5126,"count":5825,"max":[0.9912182092666626,0.9912774562835693],"min":[0.009012425318360329,0.008650541305541992],"type":"VEC2"},{"bufferView":0,"componentType":5125,"count":29262,"type":"SCALAR"}],"asset":{"extras":{"author":"pighunt3r15 (https://sketchfab.com/pighunt3r15)","license":"CC-BY-4.0 (http://creativecommons.org/licenses/by/4.0/)","source":"https://sketchfab.com/3d-models/realistic-deer-76039b75cdc0492a80680c2404725496","title":"Realistic Deer"},"generator":"Sketchfab-15.25.0","version":"2.0"},"bufferViews":[{"buffer":0,"byteLength":117048,"name":"floatBufferViews","target":34963},{"buffer":0,"byteLength":46600,"byteOffset":117048,"byteStride":8,"name":"floatBufferViews","target":34962},{"buffer":0,"byteLength":139800,"byteOffset":163648,"byteStride":12,"name":"floatBufferViews","target":34962}],"buffers":[{"byteLength":303448,"uri":"data:application/octet-stream;base64,"}],"images":[{"uri":"data:application/octet-stream;base64,"}],"materials":[{"doubleSided":true,"name":"Material","pbrMetallicRoughness":{"baseColorTexture":{"index":0},"metallicFactor":0.46171569284782576,"roughnessFactor":0.8211145618000169}}],"meshes":[{"name":"deer.002_Material_0","primitives":[{"attributes":{"NORMAL":1,"POSITION":0,"TEXCOORD_0":2},"indices":3,"material":0,"mode":4}]}],"nodes":[{"children":[1],"matrix":[1,0,0,0,0,2.220446049250313e-16,-1,0,0,1,2.220446049250313e-16,0,0,0,0,1],"name":"Sketchfab_model"},{"children":[2],"matrix":[0.009999999776482582,0,0,0,0,0,0.009999999776482582,0,0,-0.009999999776482582,0,0,0,0,0,1],"name":"5a83324bba4b4a3bbd349297e078a0b9.fbx"},{"children":[3],"name":"RootNode"},{"children":[4],"matrix":[29.947242736816406,0,0,0,0,-0.000004879025132594218,-29.947242736816012,0,0,29.947242736816012,-0.000004879025132594218,0,0,0,0,1],"name":"deer.002"},{"mesh":0,"name":"deer.002_Material_0"}],"samplers":[{"magFilter":9729,"minFilter":9987,"wrapS":10497,"wrapT":10497}],"scene":0,"scenes":[{"name":"Sketchfab_Scene","nodes":[0]}],"textures":[{"sampler":0,"source":0}]}